<mxfile host="Electron" modified="2024-12-22T20:37:59.265Z" agent="Mozilla/5.0 (X11; Linux x86_64) AppleWebKit/537.36 (KHTML, like Gecko) draw.io/24.1.0 Chrome/120.0.6099.109 Electron/28.1.0 Safari/537.36" version="24.1.0" etag="esx3jUFYGA9gFlouJPq6" type="device" pages="3">
  <diagram id="ngiz5FAq03lPU741cDY8" name="Architecture">
    <mxGraphModel dx="1114" dy="663" grid="1" gridSize="10" guides="1" tooltips="1" connect="1" arrows="1" fold="1" page="1" pageScale="1" pageWidth="850" pageHeight="1100" math="0" shadow="0">
      <root>
        <mxCell id="0" />
        <mxCell id="1" parent="0" />
        <mxCell id="2" value="&lt;&lt;NextJS&gt;&gt;&gt;&#xa;Frontend" style="shape=module;align=left;spacingLeft=20;align=center;verticalAlign=top;" parent="1" vertex="1">
          <mxGeometry x="330" y="320" width="150" height="50" as="geometry" />
        </mxCell>
        <mxCell id="5" style="edgeStyle=none;html=1;" parent="1" source="3" target="4" edge="1">
          <mxGeometry relative="1" as="geometry" />
        </mxCell>
        <mxCell id="17" value="" style="edgeStyle=none;html=1;" parent="1" source="3" target="2" edge="1">
          <mxGeometry relative="1" as="geometry" />
        </mxCell>
        <mxCell id="3" value="&lt;&lt;Python/Django&gt;&gt;&gt;&#xa;Backend" style="shape=module;align=left;spacingLeft=20;align=center;verticalAlign=top;" parent="1" vertex="1">
          <mxGeometry x="330" y="460" width="150" height="50" as="geometry" />
        </mxCell>
        <mxCell id="4" value="&lt;&lt;RDBMS&gt;&gt;&gt;&#xa;PostgreSQL" style="shape=module;align=left;spacingLeft=20;align=center;verticalAlign=top;" parent="1" vertex="1">
          <mxGeometry x="330" y="560" width="150" height="50" as="geometry" />
        </mxCell>
        <mxCell id="8" style="edgeStyle=none;html=1;entryX=0.5;entryY=0;entryDx=0;entryDy=0;" parent="1" source="7" target="2" edge="1">
          <mxGeometry relative="1" as="geometry" />
        </mxCell>
        <mxCell id="7" value="Actor" style="shape=umlActor;verticalLabelPosition=top;verticalAlign=bottom;html=1;labelPosition=center;align=center;" parent="1" vertex="1">
          <mxGeometry x="390" y="210" width="30" height="60" as="geometry" />
        </mxCell>
        <mxCell id="10" style="edgeStyle=orthogonalEdgeStyle;html=1;entryX=0.5;entryY=0;entryDx=0;entryDy=0;" parent="1" source="9" target="12" edge="1">
          <mxGeometry relative="1" as="geometry">
            <mxPoint x="550" y="370" as="targetPoint" />
          </mxGeometry>
        </mxCell>
        <mxCell id="9" value="Admin" style="shape=umlActor;verticalLabelPosition=top;verticalAlign=bottom;html=1;labelPosition=center;align=center;" parent="1" vertex="1">
          <mxGeometry x="580" y="210" width="30" height="60" as="geometry" />
        </mxCell>
        <mxCell id="13" style="edgeStyle=orthogonalEdgeStyle;html=1;entryX=1;entryY=0.5;entryDx=0;entryDy=0;exitX=0.5;exitY=1;exitDx=0;exitDy=0;" parent="1" source="12" target="3" edge="1">
          <mxGeometry relative="1" as="geometry" />
        </mxCell>
        <mxCell id="12" value="&lt;&lt;Admin console&gt;&gt;&gt;&#xa;Django Admin" style="shape=module;align=left;spacingLeft=20;align=center;verticalAlign=top;" parent="1" vertex="1">
          <mxGeometry x="520" y="320" width="150" height="50" as="geometry" />
        </mxCell>
        <mxCell id="14" value="" style="rounded=0;orthogonalLoop=1;jettySize=auto;html=1;endArrow=none;endFill=0;sketch=0;sourcePerimeterSpacing=0;targetPerimeterSpacing=0;exitX=0.5;exitY=1;exitDx=0;exitDy=0;" parent="1" source="2" target="16" edge="1">
          <mxGeometry relative="1" as="geometry">
            <mxPoint x="430" y="435" as="sourcePoint" />
          </mxGeometry>
        </mxCell>
        <mxCell id="15" value="" style="rounded=0;orthogonalLoop=1;jettySize=auto;html=1;endArrow=halfCircle;endFill=0;entryX=0.5;entryY=0.5;endSize=6;strokeWidth=1;sketch=0;exitX=0.5;exitY=0;exitDx=0;exitDy=0;" parent="1" source="3" target="16" edge="1">
          <mxGeometry relative="1" as="geometry">
            <mxPoint x="470" y="435" as="sourcePoint" />
          </mxGeometry>
        </mxCell>
        <mxCell id="16" value="" style="ellipse;whiteSpace=wrap;html=1;align=center;aspect=fixed;resizable=0;points=[];outlineConnect=0;sketch=0;" parent="1" vertex="1">
          <mxGeometry x="400" y="410" width="10" height="10" as="geometry" />
        </mxCell>
      </root>
    </mxGraphModel>
  </diagram>
  <diagram id="CPc_6eoj7wbYRA41_Fh4" name="BPMN">
    <mxGraphModel dx="1066" dy="591" grid="1" gridSize="10" guides="1" tooltips="1" connect="1" arrows="1" fold="1" page="1" pageScale="1" pageWidth="1169" pageHeight="827" math="0" shadow="0">
      <root>
        <mxCell id="0" />
        <mxCell id="1" parent="0" />
        <mxCell id="n_MsddosQj3UE_YR2wtR-8" value="Processus Projet" style="swimlane;html=1;childLayout=stackLayout;resizeParent=1;resizeParentMax=0;horizontal=1;startSize=20;horizontalStack=0;whiteSpace=wrap;" parent="1" vertex="1">
          <mxGeometry x="40" y="20" width="800" height="380" as="geometry" />
        </mxCell>
        <mxCell id="n_MsddosQj3UE_YR2wtR-9" value="Partenaire" style="swimlane;html=1;startSize=20;horizontal=0;" parent="n_MsddosQj3UE_YR2wtR-8" vertex="1">
          <mxGeometry y="20" width="800" height="120" as="geometry" />
        </mxCell>
        <mxCell id="n_MsddosQj3UE_YR2wtR-5" value="" style="points=[[0.145,0.145,0],[0.5,0,0],[0.855,0.145,0],[1,0.5,0],[0.855,0.855,0],[0.5,1,0],[0.145,0.855,0],[0,0.5,0]];shape=mxgraph.bpmn.event;html=1;verticalLabelPosition=bottom;labelBackgroundColor=#ffffff;verticalAlign=top;align=center;perimeter=ellipsePerimeter;outlineConnect=0;aspect=fixed;outline=standard;symbol=general;" parent="n_MsddosQj3UE_YR2wtR-9" vertex="1">
          <mxGeometry x="40" y="49" width="30" height="30" as="geometry" />
        </mxCell>
        <mxCell id="n_MsddosQj3UE_YR2wtR-6" value="Créer un compte" style="points=[[0.25,0,0],[0.5,0,0],[0.75,0,0],[1,0.25,0],[1,0.5,0],[1,0.75,0],[0.75,1,0],[0.5,1,0],[0.25,1,0],[0,0.75,0],[0,0.5,0],[0,0.25,0]];shape=mxgraph.bpmn.task;whiteSpace=wrap;rectStyle=rounded;size=10;html=1;taskMarker=abstract;" parent="n_MsddosQj3UE_YR2wtR-9" vertex="1">
          <mxGeometry x="90" y="39" width="80" height="50" as="geometry" />
        </mxCell>
        <mxCell id="n_MsddosQj3UE_YR2wtR-7" style="edgeStyle=none;html=1;entryX=0;entryY=0.5;entryDx=0;entryDy=0;entryPerimeter=0;" parent="n_MsddosQj3UE_YR2wtR-9" source="n_MsddosQj3UE_YR2wtR-5" target="n_MsddosQj3UE_YR2wtR-6" edge="1">
          <mxGeometry relative="1" as="geometry" />
        </mxCell>
        <mxCell id="n_MsddosQj3UE_YR2wtR-13" value="Renseigner le profil" style="points=[[0.25,0,0],[0.5,0,0],[0.75,0,0],[1,0.25,0],[1,0.5,0],[1,0.75,0],[0.75,1,0],[0.5,1,0],[0.25,1,0],[0,0.75,0],[0,0.5,0],[0,0.25,0]];shape=mxgraph.bpmn.task;whiteSpace=wrap;rectStyle=rounded;size=10;html=1;taskMarker=abstract;" parent="n_MsddosQj3UE_YR2wtR-9" vertex="1">
          <mxGeometry x="200" y="39" width="80" height="50" as="geometry" />
        </mxCell>
        <mxCell id="n_MsddosQj3UE_YR2wtR-14" value="" style="edgeStyle=none;html=1;" parent="n_MsddosQj3UE_YR2wtR-9" source="n_MsddosQj3UE_YR2wtR-6" target="n_MsddosQj3UE_YR2wtR-13" edge="1">
          <mxGeometry relative="1" as="geometry" />
        </mxCell>
        <mxCell id="n_MsddosQj3UE_YR2wtR-17" value="Créer et valider un projet" style="points=[[0.25,0,0],[0.5,0,0],[0.75,0,0],[1,0.25,0],[1,0.5,0],[1,0.75,0],[0.75,1,0],[0.5,1,0],[0.25,1,0],[0,0.75,0],[0,0.5,0],[0,0.25,0]];shape=mxgraph.bpmn.task;whiteSpace=wrap;rectStyle=rounded;size=10;html=1;taskMarker=abstract;" parent="n_MsddosQj3UE_YR2wtR-9" vertex="1">
          <mxGeometry x="320" y="39" width="80" height="50" as="geometry" />
        </mxCell>
        <mxCell id="n_MsddosQj3UE_YR2wtR-18" value="" style="edgeStyle=none;html=1;" parent="n_MsddosQj3UE_YR2wtR-9" target="n_MsddosQj3UE_YR2wtR-17" edge="1">
          <mxGeometry relative="1" as="geometry">
            <mxPoint x="280" y="64" as="sourcePoint" />
          </mxGeometry>
        </mxCell>
        <mxCell id="Wr1dtMVGlWVq8GFTovtq-48" value="Examiner le Devis" style="points=[[0.25,0,0],[0.5,0,0],[0.75,0,0],[1,0.25,0],[1,0.5,0],[1,0.75,0],[0.75,1,0],[0.5,1,0],[0.25,1,0],[0,0.75,0],[0,0.5,0],[0,0.25,0]];shape=mxgraph.bpmn.task;whiteSpace=wrap;rectStyle=rounded;size=10;html=1;taskMarker=abstract;" parent="n_MsddosQj3UE_YR2wtR-9" vertex="1">
          <mxGeometry x="440" y="39" width="80" height="50" as="geometry" />
        </mxCell>
        <mxCell id="Wr1dtMVGlWVq8GFTovtq-50" value="Singer la commande" style="points=[[0.25,0,0],[0.5,0,0],[0.75,0,0],[1,0.25,0],[1,0.5,0],[1,0.75,0],[0.75,1,0],[0.5,1,0],[0.25,1,0],[0,0.75,0],[0,0.5,0],[0,0.25,0]];shape=mxgraph.bpmn.task;whiteSpace=wrap;rectStyle=rounded;size=10;html=1;taskMarker=abstract;" parent="n_MsddosQj3UE_YR2wtR-9" vertex="1">
          <mxGeometry x="580" y="39" width="80" height="50" as="geometry" />
        </mxCell>
        <mxCell id="Wr1dtMVGlWVq8GFTovtq-51" value="" style="edgeStyle=orthogonalEdgeStyle;rounded=0;orthogonalLoop=1;jettySize=auto;html=1;" parent="n_MsddosQj3UE_YR2wtR-9" source="Wr1dtMVGlWVq8GFTovtq-48" target="Wr1dtMVGlWVq8GFTovtq-50" edge="1">
          <mxGeometry relative="1" as="geometry" />
        </mxCell>
        <mxCell id="n_MsddosQj3UE_YR2wtR-10" value="Encadrant" style="swimlane;html=1;startSize=20;horizontal=0;" parent="n_MsddosQj3UE_YR2wtR-8" vertex="1">
          <mxGeometry y="140" width="800" height="120" as="geometry" />
        </mxCell>
        <mxCell id="Wr1dtMVGlWVq8GFTovtq-44" value="48H" style="points=[[0.145,0.145,0],[0.5,0,0],[0.855,0.145,0],[1,0.5,0],[0.855,0.855,0],[0.5,1,0],[0.145,0.855,0],[0,0.5,0]];shape=mxgraph.bpmn.event;html=1;verticalLabelPosition=bottom;labelBackgroundColor=#ffffff;verticalAlign=top;align=center;perimeter=ellipsePerimeter;outlineConnect=0;aspect=fixed;outline=catching;symbol=timer;" parent="n_MsddosQj3UE_YR2wtR-10" vertex="1">
          <mxGeometry x="290" y="50" width="20" height="20" as="geometry" />
        </mxCell>
        <mxCell id="Wr1dtMVGlWVq8GFTovtq-45" value="Proposer un Devis" style="points=[[0.25,0,0],[0.5,0,0],[0.75,0,0],[1,0.25,0],[1,0.5,0],[1,0.75,0],[0.75,1,0],[0.5,1,0],[0.25,1,0],[0,0.75,0],[0,0.5,0],[0,0.25,0]];shape=mxgraph.bpmn.task;whiteSpace=wrap;rectStyle=rounded;size=10;html=1;taskMarker=abstract;" parent="n_MsddosQj3UE_YR2wtR-10" vertex="1">
          <mxGeometry x="440" y="40" width="80" height="50" as="geometry" />
        </mxCell>
        <mxCell id="Wr1dtMVGlWVq8GFTovtq-53" value="Affection des apprenants" style="points=[[0.25,0,0],[0.5,0,0],[0.75,0,0],[1,0.25,0],[1,0.5,0],[1,0.75,0],[0.75,1,0],[0.5,1,0],[0.25,1,0],[0,0.75,0],[0,0.5,0],[0,0.25,0]];shape=mxgraph.bpmn.task;whiteSpace=wrap;rectStyle=rounded;size=10;html=1;taskMarker=abstract;" parent="n_MsddosQj3UE_YR2wtR-10" vertex="1">
          <mxGeometry x="580" y="40" width="80" height="50" as="geometry" />
        </mxCell>
        <mxCell id="n_MsddosQj3UE_YR2wtR-11" value="Apprenant" style="swimlane;html=1;startSize=20;horizontal=0;" parent="n_MsddosQj3UE_YR2wtR-8" vertex="1">
          <mxGeometry y="260" width="800" height="120" as="geometry" />
        </mxCell>
        <mxCell id="n_MsddosQj3UE_YR2wtR-22" value="Renseigner le profil" style="points=[[0.25,0,0],[0.5,0,0],[0.75,0,0],[1,0.25,0],[1,0.5,0],[1,0.75,0],[0.75,1,0],[0.5,1,0],[0.25,1,0],[0,0.75,0],[0,0.5,0],[0,0.25,0]];shape=mxgraph.bpmn.task;whiteSpace=wrap;rectStyle=rounded;size=10;html=1;taskMarker=abstract;" parent="n_MsddosQj3UE_YR2wtR-11" vertex="1">
          <mxGeometry x="580" y="35" width="80" height="50" as="geometry" />
        </mxCell>
        <mxCell id="n_MsddosQj3UE_YR2wtR-20" value="Créer un compte" style="points=[[0.25,0,0],[0.5,0,0],[0.75,0,0],[1,0.25,0],[1,0.5,0],[1,0.75,0],[0.75,1,0],[0.5,1,0],[0.25,1,0],[0,0.75,0],[0,0.5,0],[0,0.25,0]];shape=mxgraph.bpmn.task;whiteSpace=wrap;rectStyle=rounded;size=10;html=1;taskMarker=abstract;" parent="n_MsddosQj3UE_YR2wtR-11" vertex="1">
          <mxGeometry x="440" y="35" width="80" height="50" as="geometry" />
        </mxCell>
        <mxCell id="n_MsddosQj3UE_YR2wtR-23" value="" style="edgeStyle=none;html=1;" parent="n_MsddosQj3UE_YR2wtR-11" source="n_MsddosQj3UE_YR2wtR-20" target="n_MsddosQj3UE_YR2wtR-22" edge="1">
          <mxGeometry relative="1" as="geometry" />
        </mxCell>
        <mxCell id="n_MsddosQj3UE_YR2wtR-19" value="" style="points=[[0.145,0.145,0],[0.5,0,0],[0.855,0.145,0],[1,0.5,0],[0.855,0.855,0],[0.5,1,0],[0.145,0.855,0],[0,0.5,0]];shape=mxgraph.bpmn.event;html=1;verticalLabelPosition=bottom;labelBackgroundColor=#ffffff;verticalAlign=top;align=center;perimeter=ellipsePerimeter;outlineConnect=0;aspect=fixed;outline=standard;symbol=general;" parent="n_MsddosQj3UE_YR2wtR-11" vertex="1">
          <mxGeometry x="360" y="45" width="30" height="30" as="geometry" />
        </mxCell>
        <mxCell id="n_MsddosQj3UE_YR2wtR-21" style="edgeStyle=none;html=1;entryX=0;entryY=0.5;entryDx=0;entryDy=0;entryPerimeter=0;" parent="n_MsddosQj3UE_YR2wtR-11" source="n_MsddosQj3UE_YR2wtR-19" target="n_MsddosQj3UE_YR2wtR-20" edge="1">
          <mxGeometry relative="1" as="geometry" />
        </mxCell>
        <mxCell id="Wr1dtMVGlWVq8GFTovtq-60" value="Es que l&#39;apprenant a le droit&amp;nbsp;&lt;div&gt;de choisir le projet sur lequel il travail ?&lt;/div&gt;" style="text;html=1;align=center;verticalAlign=middle;resizable=0;points=[];autosize=1;strokeColor=none;fillColor=none;" parent="n_MsddosQj3UE_YR2wtR-11" vertex="1">
          <mxGeometry x="90" y="20" width="230" height="40" as="geometry" />
        </mxCell>
        <mxCell id="Wr1dtMVGlWVq8GFTovtq-49" value="" style="edgeStyle=orthogonalEdgeStyle;rounded=0;orthogonalLoop=1;jettySize=auto;html=1;" parent="n_MsddosQj3UE_YR2wtR-8" source="Wr1dtMVGlWVq8GFTovtq-45" target="Wr1dtMVGlWVq8GFTovtq-48" edge="1">
          <mxGeometry relative="1" as="geometry" />
        </mxCell>
        <mxCell id="Wr1dtMVGlWVq8GFTovtq-52" value="Autres devis&amp;nbsp;&lt;div&gt;pour comparaison&lt;/div&gt;" style="edgeStyle=orthogonalEdgeStyle;rounded=0;orthogonalLoop=1;jettySize=auto;html=1;entryX=0.75;entryY=0;entryDx=0;entryDy=0;entryPerimeter=0;exitX=0.75;exitY=1;exitDx=0;exitDy=0;exitPerimeter=0;align=left;" parent="n_MsddosQj3UE_YR2wtR-8" source="Wr1dtMVGlWVq8GFTovtq-48" target="Wr1dtMVGlWVq8GFTovtq-45" edge="1">
          <mxGeometry x="0.4366" y="10" relative="1" as="geometry">
            <mxPoint as="offset" />
          </mxGeometry>
        </mxCell>
        <mxCell id="Wr1dtMVGlWVq8GFTovtq-54" value="" style="edgeStyle=orthogonalEdgeStyle;rounded=0;orthogonalLoop=1;jettySize=auto;html=1;" parent="n_MsddosQj3UE_YR2wtR-8" source="Wr1dtMVGlWVq8GFTovtq-50" target="Wr1dtMVGlWVq8GFTovtq-53" edge="1">
          <mxGeometry relative="1" as="geometry" />
        </mxCell>
        <mxCell id="Wr1dtMVGlWVq8GFTovtq-57" style="edgeStyle=orthogonalEdgeStyle;rounded=0;orthogonalLoop=1;jettySize=auto;html=1;entryX=0.5;entryY=1;entryDx=0;entryDy=0;entryPerimeter=0;" parent="n_MsddosQj3UE_YR2wtR-8" source="n_MsddosQj3UE_YR2wtR-22" target="Wr1dtMVGlWVq8GFTovtq-53" edge="1">
          <mxGeometry relative="1" as="geometry" />
        </mxCell>
        <mxCell id="Qacf6nXfVp3i9EPjwDTm-1" value="&lt;span data-teams=&quot;true&quot;&gt;Pour les annonces, c’est plus simple, le client saisit son annonce puis la publie. Celle-ci arrive dans un tableau annonce (écran admin), que l’encadrant relie et la publie sur la plateforme.&lt;/span&gt;&lt;div&gt;&lt;span data-teams=&quot;true&quot;&gt;&lt;br&gt;&lt;/span&gt;&lt;/div&gt;&lt;div&gt;&lt;span data-teams=&quot;true&quot;&gt;Soit l’apprenant a souscrit à une formation 4 ou 8 mois directement, l’annonce n’est visible qu’à 3 ou 7 mois. C’est à ce moment là qu’il pourra postuler afin qu’il ne soit pas tenté d’abandonner la formation.&lt;br&gt;&lt;br&gt;&lt;br&gt;Soit l’apprenant souhaite une POE (I/C), il ne pourra postuler qu’aux annonces proposant ce dispositif. L’entreprise partenaire reçoit une notification puis inscrit cet apprenant sur le portail France travail. Si FT accepte, il finance la formation puis versera une subvention à l’entreprise une fois qu’elle aura embauché l’apprenant (pour cdi, cdd, apprentissage, etc …). L’apprenant ne verra les projets qu’une fois la validation de FT.&lt;br&gt;&lt;br&gt;&lt;br&gt;Ou bien l’entreprise partenaire embauche l’apprenant et sollicite un AFEST (dispositif de formation) prise en charge par FT. &amp;nbsp;Pareil, L’apprenant ne verra les projets qu’une fois la validation de FT.&lt;br&gt;&lt;br&gt;&lt;br&gt;Il faut noter que dans les 3 cas, l’entreprise partenaire a la visibilité sur les profils et peut elle même sélectionner les apprenants à former …&lt;/span&gt;&lt;/div&gt;" style="text;whiteSpace=wrap;html=1;" parent="1" vertex="1">
          <mxGeometry x="1190" y="440" width="560" height="300" as="geometry" />
        </mxCell>
        <mxCell id="Wr1dtMVGlWVq8GFTovtq-46" value="" style="edgeStyle=orthogonalEdgeStyle;rounded=0;orthogonalLoop=1;jettySize=auto;html=1;" parent="1" source="Wr1dtMVGlWVq8GFTovtq-42" target="Wr1dtMVGlWVq8GFTovtq-45" edge="1">
          <mxGeometry relative="1" as="geometry" />
        </mxCell>
        <mxCell id="Wr1dtMVGlWVq8GFTovtq-42" value="Contacter le et Qualifer le client&amp;nbsp;" style="points=[[0.25,0,0],[0.5,0,0],[0.75,0,0],[1,0.25,0],[1,0.5,0],[1,0.75,0],[0.75,1,0],[0.5,1,0],[0.25,1,0],[0,0.75,0],[0,0.5,0],[0,0.25,0]];shape=mxgraph.bpmn.task;whiteSpace=wrap;rectStyle=rounded;size=10;html=1;taskMarker=abstract;" parent="1" vertex="1">
          <mxGeometry x="360" y="200" width="80" height="50" as="geometry" />
        </mxCell>
        <mxCell id="Wr1dtMVGlWVq8GFTovtq-43" value="" style="edgeStyle=orthogonalEdgeStyle;rounded=0;orthogonalLoop=1;jettySize=auto;html=1;" parent="1" source="n_MsddosQj3UE_YR2wtR-17" target="Wr1dtMVGlWVq8GFTovtq-42" edge="1">
          <mxGeometry relative="1" as="geometry" />
        </mxCell>
        <mxCell id="Wr1dtMVGlWVq8GFTovtq-58" value="Réalisation du projet" style="points=[[0.25,0,0],[0.5,0,0],[0.75,0,0],[1,0.25,0],[1,0.5,0],[1,0.75,0],[0.75,1,0],[0.5,1,0],[0.25,1,0],[0,0.75,0],[0,0.5,0],[0,0.25,0]];shape=mxgraph.bpmn.task;whiteSpace=wrap;rectStyle=rounded;size=10;html=1;taskMarker=abstract;" parent="1" vertex="1">
          <mxGeometry x="740" y="200" width="80" height="50" as="geometry" />
        </mxCell>
        <mxCell id="Wr1dtMVGlWVq8GFTovtq-59" value="" style="edgeStyle=orthogonalEdgeStyle;rounded=0;orthogonalLoop=1;jettySize=auto;html=1;" parent="1" source="Wr1dtMVGlWVq8GFTovtq-53" target="Wr1dtMVGlWVq8GFTovtq-58" edge="1">
          <mxGeometry relative="1" as="geometry" />
        </mxCell>
        <mxCell id="Wr1dtMVGlWVq8GFTovtq-62" value="Processus Annonces" style="swimlane;html=1;childLayout=stackLayout;resizeParent=1;resizeParentMax=0;horizontal=1;startSize=20;horizontalStack=0;whiteSpace=wrap;" parent="1" vertex="1">
          <mxGeometry x="40" y="420" width="1000" height="380" as="geometry" />
        </mxCell>
        <mxCell id="Wr1dtMVGlWVq8GFTovtq-63" value="Partenaire" style="swimlane;html=1;startSize=20;horizontal=0;" parent="Wr1dtMVGlWVq8GFTovtq-62" vertex="1">
          <mxGeometry y="20" width="1000" height="120" as="geometry" />
        </mxCell>
        <mxCell id="Wr1dtMVGlWVq8GFTovtq-64" value="" style="points=[[0.145,0.145,0],[0.5,0,0],[0.855,0.145,0],[1,0.5,0],[0.855,0.855,0],[0.5,1,0],[0.145,0.855,0],[0,0.5,0]];shape=mxgraph.bpmn.event;html=1;verticalLabelPosition=bottom;labelBackgroundColor=#ffffff;verticalAlign=top;align=center;perimeter=ellipsePerimeter;outlineConnect=0;aspect=fixed;outline=standard;symbol=general;" parent="Wr1dtMVGlWVq8GFTovtq-63" vertex="1">
          <mxGeometry x="40" y="19" width="30" height="30" as="geometry" />
        </mxCell>
        <mxCell id="Wr1dtMVGlWVq8GFTovtq-65" value="Créer un compte" style="points=[[0.25,0,0],[0.5,0,0],[0.75,0,0],[1,0.25,0],[1,0.5,0],[1,0.75,0],[0.75,1,0],[0.5,1,0],[0.25,1,0],[0,0.75,0],[0,0.5,0],[0,0.25,0]];shape=mxgraph.bpmn.task;whiteSpace=wrap;rectStyle=rounded;size=10;html=1;taskMarker=abstract;" parent="Wr1dtMVGlWVq8GFTovtq-63" vertex="1">
          <mxGeometry x="90" y="9" width="80" height="50" as="geometry" />
        </mxCell>
        <mxCell id="Wr1dtMVGlWVq8GFTovtq-66" style="edgeStyle=none;html=1;entryX=0;entryY=0.5;entryDx=0;entryDy=0;entryPerimeter=0;" parent="Wr1dtMVGlWVq8GFTovtq-63" source="Wr1dtMVGlWVq8GFTovtq-64" target="Wr1dtMVGlWVq8GFTovtq-65" edge="1">
          <mxGeometry relative="1" as="geometry" />
        </mxCell>
        <mxCell id="Wr1dtMVGlWVq8GFTovtq-67" value="Renseigner le profil" style="points=[[0.25,0,0],[0.5,0,0],[0.75,0,0],[1,0.25,0],[1,0.5,0],[1,0.75,0],[0.75,1,0],[0.5,1,0],[0.25,1,0],[0,0.75,0],[0,0.5,0],[0,0.25,0]];shape=mxgraph.bpmn.task;whiteSpace=wrap;rectStyle=rounded;size=10;html=1;taskMarker=abstract;" parent="Wr1dtMVGlWVq8GFTovtq-63" vertex="1">
          <mxGeometry x="200" y="9" width="80" height="50" as="geometry" />
        </mxCell>
        <mxCell id="Wr1dtMVGlWVq8GFTovtq-68" value="" style="edgeStyle=none;html=1;" parent="Wr1dtMVGlWVq8GFTovtq-63" source="Wr1dtMVGlWVq8GFTovtq-65" target="Wr1dtMVGlWVq8GFTovtq-67" edge="1">
          <mxGeometry relative="1" as="geometry" />
        </mxCell>
        <mxCell id="Wr1dtMVGlWVq8GFTovtq-70" value="" style="edgeStyle=none;html=1;exitX=1;exitY=0.5;exitDx=0;exitDy=0;exitPerimeter=0;" parent="Wr1dtMVGlWVq8GFTovtq-63" source="Wr1dtMVGlWVq8GFTovtq-67" target="Wr1dtMVGlWVq8GFTovtq-69" edge="1">
          <mxGeometry relative="1" as="geometry">
            <mxPoint x="280" y="54" as="sourcePoint" />
          </mxGeometry>
        </mxCell>
        <mxCell id="Wr1dtMVGlWVq8GFTovtq-100" value="&lt;div&gt;Inscription France Travail&lt;/div&gt;" style="points=[[0.25,0,0],[0.5,0,0],[0.75,0,0],[1,0.25,0],[1,0.5,0],[1,0.75,0],[0.75,1,0],[0.5,1,0],[0.25,1,0],[0,0.75,0],[0,0.5,0],[0,0.25,0]];shape=mxgraph.bpmn.task;whiteSpace=wrap;rectStyle=rounded;size=10;html=1;taskMarker=abstract;" parent="Wr1dtMVGlWVq8GFTovtq-63" vertex="1">
          <mxGeometry x="640" y="9" width="80" height="50" as="geometry" />
        </mxCell>
        <mxCell id="Wr1dtMVGlWVq8GFTovtq-69" value="Saisir ue annonce" style="points=[[0.25,0,0],[0.5,0,0],[0.75,0,0],[1,0.25,0],[1,0.5,0],[1,0.75,0],[0.75,1,0],[0.5,1,0],[0.25,1,0],[0,0.75,0],[0,0.5,0],[0,0.25,0]];shape=mxgraph.bpmn.task;whiteSpace=wrap;rectStyle=rounded;size=10;html=1;taskMarker=abstract;" parent="Wr1dtMVGlWVq8GFTovtq-63" vertex="1">
          <mxGeometry x="390" y="9" width="80" height="50" as="geometry" />
        </mxCell>
        <mxCell id="Wr1dtMVGlWVq8GFTovtq-104" value="Consulter les profils" style="points=[[0.25,0,0],[0.5,0,0],[0.75,0,0],[1,0.25,0],[1,0.5,0],[1,0.75,0],[0.75,1,0],[0.5,1,0],[0.25,1,0],[0,0.75,0],[0,0.5,0],[0,0.25,0]];shape=mxgraph.bpmn.task;whiteSpace=wrap;rectStyle=rounded;size=10;html=1;taskMarker=abstract;" parent="Wr1dtMVGlWVq8GFTovtq-63" vertex="1">
          <mxGeometry x="280" y="59" width="80" height="50" as="geometry" />
        </mxCell>
        <mxCell id="Wr1dtMVGlWVq8GFTovtq-105" value="" style="edgeStyle=orthogonalEdgeStyle;rounded=0;orthogonalLoop=1;jettySize=auto;html=1;exitX=0.5;exitY=1;exitDx=0;exitDy=0;exitPerimeter=0;entryX=0;entryY=0.5;entryDx=0;entryDy=0;entryPerimeter=0;" parent="Wr1dtMVGlWVq8GFTovtq-63" source="Wr1dtMVGlWVq8GFTovtq-67" target="Wr1dtMVGlWVq8GFTovtq-104" edge="1">
          <mxGeometry relative="1" as="geometry" />
        </mxCell>
        <mxCell id="Wr1dtMVGlWVq8GFTovtq-74" value="Encadrant" style="swimlane;html=1;startSize=20;horizontal=0;" parent="Wr1dtMVGlWVq8GFTovtq-62" vertex="1">
          <mxGeometry y="140" width="1000" height="120" as="geometry" />
        </mxCell>
        <mxCell id="Wr1dtMVGlWVq8GFTovtq-90" value="Revue et Validation" style="points=[[0.25,0,0],[0.5,0,0],[0.75,0,0],[1,0.25,0],[1,0.5,0],[1,0.75,0],[0.75,1,0],[0.5,1,0],[0.25,1,0],[0,0.75,0],[0,0.5,0],[0,0.25,0]];shape=mxgraph.bpmn.task;whiteSpace=wrap;rectStyle=rounded;size=10;html=1;taskMarker=abstract;" parent="Wr1dtMVGlWVq8GFTovtq-74" vertex="1">
          <mxGeometry x="390" y="40" width="80" height="50" as="geometry" />
        </mxCell>
        <mxCell id="Wr1dtMVGlWVq8GFTovtq-78" value="Apprenant" style="swimlane;html=1;startSize=20;horizontal=0;" parent="Wr1dtMVGlWVq8GFTovtq-62" vertex="1">
          <mxGeometry y="260" width="1000" height="120" as="geometry" />
        </mxCell>
        <mxCell id="Wr1dtMVGlWVq8GFTovtq-79" value="Souscription à une formation" style="points=[[0.25,0,0],[0.5,0,0],[0.75,0,0],[1,0.25,0],[1,0.5,0],[1,0.75,0],[0.75,1,0],[0.5,1,0],[0.25,1,0],[0,0.75,0],[0,0.5,0],[0,0.25,0]];shape=mxgraph.bpmn.task;whiteSpace=wrap;rectStyle=rounded;size=10;html=1;taskMarker=abstract;" parent="Wr1dtMVGlWVq8GFTovtq-78" vertex="1">
          <mxGeometry x="390" y="35" width="80" height="50" as="geometry" />
        </mxCell>
        <mxCell id="Wr1dtMVGlWVq8GFTovtq-80" value="Créer un compte" style="points=[[0.25,0,0],[0.5,0,0],[0.75,0,0],[1,0.25,0],[1,0.5,0],[1,0.75,0],[0.75,1,0],[0.5,1,0],[0.25,1,0],[0,0.75,0],[0,0.5,0],[0,0.25,0]];shape=mxgraph.bpmn.task;whiteSpace=wrap;rectStyle=rounded;size=10;html=1;taskMarker=abstract;" parent="Wr1dtMVGlWVq8GFTovtq-78" vertex="1">
          <mxGeometry x="160" y="35" width="80" height="50" as="geometry" />
        </mxCell>
        <mxCell id="Wr1dtMVGlWVq8GFTovtq-81" value="" style="edgeStyle=none;html=1;" parent="Wr1dtMVGlWVq8GFTovtq-78" source="Wr1dtMVGlWVq8GFTovtq-106" target="Wr1dtMVGlWVq8GFTovtq-79" edge="1">
          <mxGeometry relative="1" as="geometry" />
        </mxCell>
        <mxCell id="Wr1dtMVGlWVq8GFTovtq-82" value="" style="points=[[0.145,0.145,0],[0.5,0,0],[0.855,0.145,0],[1,0.5,0],[0.855,0.855,0],[0.5,1,0],[0.145,0.855,0],[0,0.5,0]];shape=mxgraph.bpmn.event;html=1;verticalLabelPosition=bottom;labelBackgroundColor=#ffffff;verticalAlign=top;align=center;perimeter=ellipsePerimeter;outlineConnect=0;aspect=fixed;outline=standard;symbol=general;" parent="Wr1dtMVGlWVq8GFTovtq-78" vertex="1">
          <mxGeometry x="100" y="45" width="30" height="30" as="geometry" />
        </mxCell>
        <mxCell id="Wr1dtMVGlWVq8GFTovtq-83" style="edgeStyle=none;html=1;entryX=0;entryY=0.5;entryDx=0;entryDy=0;entryPerimeter=0;" parent="Wr1dtMVGlWVq8GFTovtq-78" source="Wr1dtMVGlWVq8GFTovtq-82" target="Wr1dtMVGlWVq8GFTovtq-80" edge="1">
          <mxGeometry relative="1" as="geometry" />
        </mxCell>
        <mxCell id="Wr1dtMVGlWVq8GFTovtq-77" value="Consultation des annonce" style="points=[[0.25,0,0],[0.5,0,0],[0.75,0,0],[1,0.25,0],[1,0.5,0],[1,0.75,0],[0.75,1,0],[0.5,1,0],[0.25,1,0],[0,0.75,0],[0,0.5,0],[0,0.25,0]];shape=mxgraph.bpmn.task;whiteSpace=wrap;rectStyle=rounded;size=10;html=1;taskMarker=abstract;" parent="Wr1dtMVGlWVq8GFTovtq-78" vertex="1">
          <mxGeometry x="510" y="35" width="80" height="50" as="geometry" />
        </mxCell>
        <mxCell id="Wr1dtMVGlWVq8GFTovtq-88" style="edgeStyle=orthogonalEdgeStyle;rounded=0;orthogonalLoop=1;jettySize=auto;html=1;entryX=0;entryY=0.5;entryDx=0;entryDy=0;entryPerimeter=0;" parent="Wr1dtMVGlWVq8GFTovtq-78" source="Wr1dtMVGlWVq8GFTovtq-79" target="Wr1dtMVGlWVq8GFTovtq-77" edge="1">
          <mxGeometry relative="1" as="geometry" />
        </mxCell>
        <mxCell id="Wr1dtMVGlWVq8GFTovtq-94" value="3/7mois" style="points=[[0.145,0.145,0],[0.5,0,0],[0.855,0.145,0],[1,0.5,0],[0.855,0.855,0],[0.5,1,0],[0.145,0.855,0],[0,0.5,0]];shape=mxgraph.bpmn.event;html=1;verticalLabelPosition=bottom;labelBackgroundColor=#ffffff;verticalAlign=top;align=center;perimeter=ellipsePerimeter;outlineConnect=0;aspect=fixed;outline=catching;symbol=timer;" parent="Wr1dtMVGlWVq8GFTovtq-78" vertex="1">
          <mxGeometry x="480" y="65" width="20" height="20" as="geometry" />
        </mxCell>
        <mxCell id="Wr1dtMVGlWVq8GFTovtq-98" value="Postuler" style="points=[[0.25,0,0],[0.5,0,0],[0.75,0,0],[1,0.25,0],[1,0.5,0],[1,0.75,0],[0.75,1,0],[0.5,1,0],[0.25,1,0],[0,0.75,0],[0,0.5,0],[0,0.25,0]];shape=mxgraph.bpmn.task;whiteSpace=wrap;rectStyle=rounded;size=10;html=1;taskMarker=abstract;" parent="Wr1dtMVGlWVq8GFTovtq-78" vertex="1">
          <mxGeometry x="640" y="35" width="80" height="50" as="geometry" />
        </mxCell>
        <mxCell id="Wr1dtMVGlWVq8GFTovtq-99" value="" style="edgeStyle=orthogonalEdgeStyle;rounded=0;orthogonalLoop=1;jettySize=auto;html=1;" parent="Wr1dtMVGlWVq8GFTovtq-78" source="Wr1dtMVGlWVq8GFTovtq-77" target="Wr1dtMVGlWVq8GFTovtq-98" edge="1">
          <mxGeometry relative="1" as="geometry" />
        </mxCell>
        <mxCell id="Wr1dtMVGlWVq8GFTovtq-106" value="Mettre à jours le profil" style="points=[[0.25,0,0],[0.5,0,0],[0.75,0,0],[1,0.25,0],[1,0.5,0],[1,0.75,0],[0.75,1,0],[0.5,1,0],[0.25,1,0],[0,0.75,0],[0,0.5,0],[0,0.25,0]];shape=mxgraph.bpmn.task;whiteSpace=wrap;rectStyle=rounded;size=10;html=1;taskMarker=abstract;" parent="Wr1dtMVGlWVq8GFTovtq-78" vertex="1">
          <mxGeometry x="280" y="35" width="80" height="50" as="geometry" />
        </mxCell>
        <mxCell id="Wr1dtMVGlWVq8GFTovtq-107" value="" style="edgeStyle=orthogonalEdgeStyle;rounded=0;orthogonalLoop=1;jettySize=auto;html=1;" parent="Wr1dtMVGlWVq8GFTovtq-78" source="Wr1dtMVGlWVq8GFTovtq-80" target="Wr1dtMVGlWVq8GFTovtq-106" edge="1">
          <mxGeometry relative="1" as="geometry" />
        </mxCell>
        <mxCell id="Wr1dtMVGlWVq8GFTovtq-108" value="" style="edgeStyle=none;html=1;" parent="Wr1dtMVGlWVq8GFTovtq-78" source="Wr1dtMVGlWVq8GFTovtq-80" target="Wr1dtMVGlWVq8GFTovtq-106" edge="1">
          <mxGeometry relative="1" as="geometry">
            <mxPoint x="230" y="740" as="sourcePoint" />
            <mxPoint x="360" y="740" as="targetPoint" />
          </mxGeometry>
        </mxCell>
        <mxCell id="Wr1dtMVGlWVq8GFTovtq-110" value="Voir les projets" style="points=[[0.25,0,0],[0.5,0,0],[0.75,0,0],[1,0.25,0],[1,0.5,0],[1,0.75,0],[0.75,1,0],[0.5,1,0],[0.25,1,0],[0,0.75,0],[0,0.5,0],[0,0.25,0]];shape=mxgraph.bpmn.task;whiteSpace=wrap;rectStyle=rounded;size=10;html=1;taskMarker=abstract;" parent="Wr1dtMVGlWVq8GFTovtq-78" vertex="1">
          <mxGeometry x="800" y="35" width="80" height="50" as="geometry" />
        </mxCell>
        <mxCell id="Wr1dtMVGlWVq8GFTovtq-101" value="" style="edgeStyle=orthogonalEdgeStyle;rounded=0;orthogonalLoop=1;jettySize=auto;html=1;" parent="Wr1dtMVGlWVq8GFTovtq-62" source="Wr1dtMVGlWVq8GFTovtq-98" target="Wr1dtMVGlWVq8GFTovtq-100" edge="1">
          <mxGeometry relative="1" as="geometry" />
        </mxCell>
        <mxCell id="Wr1dtMVGlWVq8GFTovtq-91" value="" style="edgeStyle=orthogonalEdgeStyle;rounded=0;orthogonalLoop=1;jettySize=auto;html=1;" parent="Wr1dtMVGlWVq8GFTovtq-62" source="Wr1dtMVGlWVq8GFTovtq-69" target="Wr1dtMVGlWVq8GFTovtq-90" edge="1">
          <mxGeometry relative="1" as="geometry" />
        </mxCell>
        <mxCell id="Wr1dtMVGlWVq8GFTovtq-109" style="edgeStyle=orthogonalEdgeStyle;rounded=0;orthogonalLoop=1;jettySize=auto;html=1;" parent="Wr1dtMVGlWVq8GFTovtq-62" source="Wr1dtMVGlWVq8GFTovtq-104" target="Wr1dtMVGlWVq8GFTovtq-106" edge="1">
          <mxGeometry relative="1" as="geometry" />
        </mxCell>
        <mxCell id="Wr1dtMVGlWVq8GFTovtq-96" value="Publication des annonces" style="points=[[0.25,0,0],[0.5,0,0],[0.75,0,0],[1,0.25,0],[1,0.5,0],[1,0.75,0],[0.75,1,0],[0.5,1,0],[0.25,1,0],[0,0.75,0],[0,0.5,0],[0,0.25,0]];shape=mxgraph.bpmn.task;whiteSpace=wrap;rectStyle=rounded;size=10;html=1;taskMarker=abstract;" parent="1" vertex="1">
          <mxGeometry x="550" y="600" width="80" height="50" as="geometry" />
        </mxCell>
        <mxCell id="Wr1dtMVGlWVq8GFTovtq-97" value="" style="edgeStyle=orthogonalEdgeStyle;rounded=0;orthogonalLoop=1;jettySize=auto;html=1;" parent="1" source="Wr1dtMVGlWVq8GFTovtq-90" target="Wr1dtMVGlWVq8GFTovtq-96" edge="1">
          <mxGeometry relative="1" as="geometry" />
        </mxCell>
        <mxCell id="Wr1dtMVGlWVq8GFTovtq-95" style="edgeStyle=orthogonalEdgeStyle;rounded=0;orthogonalLoop=1;jettySize=auto;html=1;entryX=0.5;entryY=1;entryDx=0;entryDy=0;entryPerimeter=0;" parent="1" source="Wr1dtMVGlWVq8GFTovtq-77" target="Wr1dtMVGlWVq8GFTovtq-96" edge="1">
          <mxGeometry relative="1" as="geometry" />
        </mxCell>
        <mxCell id="Wr1dtMVGlWVq8GFTovtq-111" value="" style="edgeStyle=orthogonalEdgeStyle;rounded=0;orthogonalLoop=1;jettySize=auto;html=1;" parent="1" source="Wr1dtMVGlWVq8GFTovtq-102" target="Wr1dtMVGlWVq8GFTovtq-110" edge="1">
          <mxGeometry relative="1" as="geometry" />
        </mxCell>
        <mxCell id="Wr1dtMVGlWVq8GFTovtq-102" value="&lt;div&gt;Acceptation France travail&lt;/div&gt;" style="points=[[0.25,0,0],[0.5,0,0],[0.75,0,0],[1,0.25,0],[1,0.5,0],[1,0.75,0],[0.75,1,0],[0.5,1,0],[0.25,1,0],[0,0.75,0],[0,0.5,0],[0,0.25,0]];shape=mxgraph.bpmn.task;whiteSpace=wrap;rectStyle=rounded;size=10;html=1;taskMarker=abstract;" parent="1" vertex="1">
          <mxGeometry x="840" y="449" width="80" height="50" as="geometry" />
        </mxCell>
        <mxCell id="Wr1dtMVGlWVq8GFTovtq-103" value="" style="edgeStyle=orthogonalEdgeStyle;rounded=0;orthogonalLoop=1;jettySize=auto;html=1;" parent="1" source="Wr1dtMVGlWVq8GFTovtq-100" target="Wr1dtMVGlWVq8GFTovtq-102" edge="1">
          <mxGeometry relative="1" as="geometry" />
        </mxCell>
      </root>
    </mxGraphModel>
  </diagram>
  <diagram id="P8CHSZqBc_xrR7mQNMM7" name="Dev process">
    <mxGraphModel dx="1114" dy="663" grid="1" gridSize="10" guides="1" tooltips="1" connect="1" arrows="1" fold="1" page="1" pageScale="1" pageWidth="1169" pageHeight="827" math="0" shadow="0">
      <root>
        <mxCell id="0" />
        <mxCell id="1" parent="0" />
        <mxCell id="-saSSTwOgaSNBJ1hiF60-1" value="Pool" style="swimlane;html=1;childLayout=stackLayout;resizeParent=1;resizeParentMax=0;horizontal=0;startSize=20;horizontalStack=0;whiteSpace=wrap;" parent="1" vertex="1">
          <mxGeometry x="40" y="40" width="1040" height="520" as="geometry" />
        </mxCell>
        <mxCell id="-saSSTwOgaSNBJ1hiF60-2" value="Product Owner&lt;br&gt;&amp;nbsp;(Samir)" style="swimlane;html=1;startSize=40;horizontal=0;" parent="-saSSTwOgaSNBJ1hiF60-1" vertex="1">
          <mxGeometry x="20" width="1020" height="120" as="geometry" />
        </mxCell>
        <mxCell id="-saSSTwOgaSNBJ1hiF60-6" value="Create User Story" style="points=[[0.25,0,0],[0.5,0,0],[0.75,0,0],[1,0.25,0],[1,0.5,0],[1,0.75,0],[0.75,1,0],[0.5,1,0],[0.25,1,0],[0,0.75,0],[0,0.5,0],[0,0.25,0]];shape=mxgraph.bpmn.task;whiteSpace=wrap;rectStyle=rounded;size=10;html=1;taskMarker=abstract;" parent="-saSSTwOgaSNBJ1hiF60-2" vertex="1">
          <mxGeometry x="80" y="70" width="90" height="40" as="geometry" />
        </mxCell>
        <mxCell id="-saSSTwOgaSNBJ1hiF60-8" style="edgeStyle=none;html=1;entryX=0.5;entryY=0;entryDx=0;entryDy=0;entryPerimeter=0;" parent="-saSSTwOgaSNBJ1hiF60-2" source="-saSSTwOgaSNBJ1hiF60-7" target="-saSSTwOgaSNBJ1hiF60-6" edge="1">
          <mxGeometry relative="1" as="geometry" />
        </mxCell>
        <mxCell id="-saSSTwOgaSNBJ1hiF60-7" value="Start" style="points=[[0.145,0.145,0],[0.5,0,0],[0.855,0.145,0],[1,0.5,0],[0.855,0.855,0],[0.5,1,0],[0.145,0.855,0],[0,0.5,0]];shape=mxgraph.bpmn.event;html=1;verticalLabelPosition=middle;labelBackgroundColor=none;verticalAlign=middle;align=right;perimeter=ellipsePerimeter;outlineConnect=0;aspect=fixed;outline=standard;symbol=general;labelPosition=left;" parent="-saSSTwOgaSNBJ1hiF60-2" vertex="1">
          <mxGeometry x="110" y="20" width="30" height="30" as="geometry" />
        </mxCell>
        <mxCell id="-saSSTwOgaSNBJ1hiF60-46" value="End" style="points=[[0.145,0.145,0],[0.5,0,0],[0.855,0.145,0],[1,0.5,0],[0.855,0.855,0],[0.5,1,0],[0.145,0.855,0],[0,0.5,0]];shape=mxgraph.bpmn.event;html=1;verticalLabelPosition=middle;labelBackgroundColor=none;verticalAlign=middle;align=left;perimeter=ellipsePerimeter;outlineConnect=0;aspect=fixed;outline=end;symbol=terminate2;labelPosition=right;" parent="-saSSTwOgaSNBJ1hiF60-2" vertex="1">
          <mxGeometry x="910" y="10" width="30" height="30" as="geometry" />
        </mxCell>
        <mxCell id="-saSSTwOgaSNBJ1hiF60-48" style="edgeStyle=orthogonalEdgeStyle;html=1;entryX=0.5;entryY=1;entryDx=0;entryDy=0;entryPerimeter=0;startArrow=none;startFill=0;" parent="-saSSTwOgaSNBJ1hiF60-2" source="-saSSTwOgaSNBJ1hiF60-35" target="-saSSTwOgaSNBJ1hiF60-46" edge="1">
          <mxGeometry relative="1" as="geometry" />
        </mxCell>
        <mxCell id="-saSSTwOgaSNBJ1hiF60-35" value="Validate" style="points=[[0.25,0,0],[0.5,0,0],[0.75,0,0],[1,0.25,0],[1,0.5,0],[1,0.75,0],[0.75,1,0],[0.5,1,0],[0.25,1,0],[0,0.75,0],[0,0.5,0],[0,0.25,0]];shape=mxgraph.bpmn.task;whiteSpace=wrap;rectStyle=rounded;size=10;html=1;taskMarker=abstract;" parent="-saSSTwOgaSNBJ1hiF60-2" vertex="1">
          <mxGeometry x="870" y="60" width="110" height="40" as="geometry" />
        </mxCell>
        <mxCell id="-saSSTwOgaSNBJ1hiF60-3" value="Scrum master&lt;br&gt;(Ali)" style="swimlane;html=1;startSize=40;horizontal=0;" parent="-saSSTwOgaSNBJ1hiF60-1" vertex="1">
          <mxGeometry x="20" y="120" width="1020" height="160" as="geometry" />
        </mxCell>
        <mxCell id="-saSSTwOgaSNBJ1hiF60-11" value="Assign task to developer" style="points=[[0.25,0,0],[0.5,0,0],[0.75,0,0],[1,0.25,0],[1,0.5,0],[1,0.75,0],[0.75,1,0],[0.5,1,0],[0.25,1,0],[0,0.75,0],[0,0.5,0],[0,0.25,0]];shape=mxgraph.bpmn.task;whiteSpace=wrap;rectStyle=rounded;size=10;html=1;taskMarker=abstract;" parent="-saSSTwOgaSNBJ1hiF60-3" vertex="1">
          <mxGeometry x="80" y="100" width="90" height="40" as="geometry" />
        </mxCell>
        <mxCell id="-saSSTwOgaSNBJ1hiF60-25" style="edgeStyle=none;html=1;entryX=0;entryY=0.5;entryDx=0;entryDy=0;entryPerimeter=0;" parent="-saSSTwOgaSNBJ1hiF60-3" source="-saSSTwOgaSNBJ1hiF60-22" target="-saSSTwOgaSNBJ1hiF60-24" edge="1">
          <mxGeometry relative="1" as="geometry" />
        </mxCell>
        <mxCell id="-saSSTwOgaSNBJ1hiF60-22" value="Review&lt;br&gt;(Comments)" style="points=[[0.25,0,0],[0.5,0,0],[0.75,0,0],[1,0.25,0],[1,0.5,0],[1,0.75,0],[0.75,1,0],[0.5,1,0],[0.25,1,0],[0,0.75,0],[0,0.5,0],[0,0.25,0]];shape=mxgraph.bpmn.task;whiteSpace=wrap;rectStyle=rounded;size=10;html=1;taskMarker=abstract;" parent="-saSSTwOgaSNBJ1hiF60-3" vertex="1">
          <mxGeometry x="600" y="25" width="130" height="60" as="geometry" />
        </mxCell>
        <mxCell id="-saSSTwOgaSNBJ1hiF60-33" value="YES" style="edgeStyle=none;html=1;entryX=-0.039;entryY=0.509;entryDx=0;entryDy=0;entryPerimeter=0;" parent="-saSSTwOgaSNBJ1hiF60-3" source="-saSSTwOgaSNBJ1hiF60-24" target="-saSSTwOgaSNBJ1hiF60-32" edge="1">
          <mxGeometry relative="1" as="geometry" />
        </mxCell>
        <mxCell id="-saSSTwOgaSNBJ1hiF60-24" value="Approved" style="points=[[0.25,0.25,0],[0.5,0,0],[0.75,0.25,0],[1,0.5,0],[0.75,0.75,0],[0.5,1,0],[0.25,0.75,0],[0,0.5,0]];shape=mxgraph.bpmn.gateway2;html=1;verticalLabelPosition=top;labelBackgroundColor=none;verticalAlign=bottom;align=center;perimeter=rhombusPerimeter;outlineConnect=0;outline=none;symbol=none;labelPosition=center;" parent="-saSSTwOgaSNBJ1hiF60-3" vertex="1">
          <mxGeometry x="790" y="45" width="30" height="30" as="geometry" />
        </mxCell>
        <mxCell id="-saSSTwOgaSNBJ1hiF60-32" value="Merge &amp;amp; Deploy" style="points=[[0.25,0,0],[0.5,0,0],[0.75,0,0],[1,0.25,0],[1,0.5,0],[1,0.75,0],[0.75,1,0],[0.5,1,0],[0.25,1,0],[0,0.75,0],[0,0.5,0],[0,0.25,0]];shape=mxgraph.bpmn.task;whiteSpace=wrap;rectStyle=rounded;size=10;html=1;taskMarker=abstract;" parent="-saSSTwOgaSNBJ1hiF60-3" vertex="1">
          <mxGeometry x="870" y="40" width="110" height="40" as="geometry" />
        </mxCell>
        <mxCell id="-saSSTwOgaSNBJ1hiF60-9" value="Extract Technical tasks and Create issues for each one" style="points=[[0.25,0,0],[0.5,0,0],[0.75,0,0],[1,0.25,0],[1,0.5,0],[1,0.75,0],[0.75,1,0],[0.5,1,0],[0.25,1,0],[0,0.75,0],[0,0.5,0],[0,0.25,0]];shape=mxgraph.bpmn.task;whiteSpace=wrap;rectStyle=rounded;size=10;html=1;taskMarker=abstract;" parent="-saSSTwOgaSNBJ1hiF60-3" vertex="1">
          <mxGeometry x="60" y="20" width="130" height="50" as="geometry" />
        </mxCell>
        <mxCell id="-saSSTwOgaSNBJ1hiF60-12" value="" style="edgeStyle=none;html=1;" parent="-saSSTwOgaSNBJ1hiF60-3" source="-saSSTwOgaSNBJ1hiF60-9" target="-saSSTwOgaSNBJ1hiF60-11" edge="1">
          <mxGeometry relative="1" as="geometry" />
        </mxCell>
        <mxCell id="-saSSTwOgaSNBJ1hiF60-4" value="Developer&lt;br&gt;(Logic)" style="swimlane;html=1;startSize=40;horizontal=0;" parent="-saSSTwOgaSNBJ1hiF60-1" vertex="1">
          <mxGeometry x="20" y="280" width="1020" height="120" as="geometry" />
        </mxCell>
        <mxCell id="-saSSTwOgaSNBJ1hiF60-15" value="Create branch" style="points=[[0.25,0,0],[0.5,0,0],[0.75,0,0],[1,0.25,0],[1,0.5,0],[1,0.75,0],[0.75,1,0],[0.5,1,0],[0.25,1,0],[0,0.75,0],[0,0.5,0],[0,0.25,0]];shape=mxgraph.bpmn.task;whiteSpace=wrap;rectStyle=rounded;size=10;html=1;taskMarker=abstract;" parent="-saSSTwOgaSNBJ1hiF60-4" vertex="1">
          <mxGeometry x="220" y="40" width="60" height="40" as="geometry" />
        </mxCell>
        <mxCell id="-saSSTwOgaSNBJ1hiF60-17" value="Implement feature and commit each day" style="points=[[0.25,0,0],[0.5,0,0],[0.75,0,0],[1,0.25,0],[1,0.5,0],[1,0.75,0],[0.75,1,0],[0.5,1,0],[0.25,1,0],[0,0.75,0],[0,0.5,0],[0,0.25,0]];shape=mxgraph.bpmn.task;whiteSpace=wrap;rectStyle=rounded;size=10;html=1;taskMarker=abstract;" parent="-saSSTwOgaSNBJ1hiF60-4" vertex="1">
          <mxGeometry x="310" y="30" width="120" height="60" as="geometry" />
        </mxCell>
        <mxCell id="-saSSTwOgaSNBJ1hiF60-18" value="" style="edgeStyle=none;html=1;" parent="-saSSTwOgaSNBJ1hiF60-4" source="-saSSTwOgaSNBJ1hiF60-15" target="-saSSTwOgaSNBJ1hiF60-17" edge="1">
          <mxGeometry relative="1" as="geometry" />
        </mxCell>
        <mxCell id="-saSSTwOgaSNBJ1hiF60-19" value="Create a Pull Request&lt;br&gt;(Add Description)" style="points=[[0.25,0,0],[0.5,0,0],[0.75,0,0],[1,0.25,0],[1,0.5,0],[1,0.75,0],[0.75,1,0],[0.5,1,0],[0.25,1,0],[0,0.75,0],[0,0.5,0],[0,0.25,0]];shape=mxgraph.bpmn.task;whiteSpace=wrap;rectStyle=rounded;size=10;html=1;taskMarker=abstract;" parent="-saSSTwOgaSNBJ1hiF60-4" vertex="1">
          <mxGeometry x="600" y="30" width="130" height="60" as="geometry" />
        </mxCell>
        <mxCell id="-saSSTwOgaSNBJ1hiF60-20" value="" style="edgeStyle=none;html=1;entryX=0;entryY=0.5;entryDx=0;entryDy=0;entryPerimeter=0;" parent="-saSSTwOgaSNBJ1hiF60-4" source="-saSSTwOgaSNBJ1hiF60-17" target="-saSSTwOgaSNBJ1hiF60-49" edge="1">
          <mxGeometry relative="1" as="geometry">
            <mxPoint x="460" y="60" as="targetPoint" />
          </mxGeometry>
        </mxCell>
        <mxCell id="-saSSTwOgaSNBJ1hiF60-26" value="Fix remarks" style="points=[[0.25,0,0],[0.5,0,0],[0.75,0,0],[1,0.25,0],[1,0.5,0],[1,0.75,0],[0.75,1,0],[0.5,1,0],[0.25,1,0],[0,0.75,0],[0,0.5,0],[0,0.25,0]];shape=mxgraph.bpmn.task;whiteSpace=wrap;rectStyle=rounded;size=10;html=1;taskMarker=abstract;" parent="-saSSTwOgaSNBJ1hiF60-4" vertex="1">
          <mxGeometry x="760" y="40" width="90" height="40" as="geometry" />
        </mxCell>
        <mxCell id="-saSSTwOgaSNBJ1hiF60-13" value="Analyse &amp;amp; Design for the task" style="points=[[0.25,0,0],[0.5,0,0],[0.75,0,0],[1,0.25,0],[1,0.5,0],[1,0.75,0],[0.75,1,0],[0.5,1,0],[0.25,1,0],[0,0.75,0],[0,0.5,0],[0,0.25,0]];shape=mxgraph.bpmn.task;whiteSpace=wrap;rectStyle=rounded;size=10;html=1;taskMarker=abstract;" parent="-saSSTwOgaSNBJ1hiF60-4" vertex="1">
          <mxGeometry x="60" y="40" width="130" height="40" as="geometry" />
        </mxCell>
        <mxCell id="-saSSTwOgaSNBJ1hiF60-16" value="" style="edgeStyle=none;html=1;" parent="-saSSTwOgaSNBJ1hiF60-4" source="-saSSTwOgaSNBJ1hiF60-13" target="-saSSTwOgaSNBJ1hiF60-15" edge="1">
          <mxGeometry relative="1" as="geometry" />
        </mxCell>
        <mxCell id="-saSSTwOgaSNBJ1hiF60-50" style="edgeStyle=orthogonalEdgeStyle;html=1;entryX=0;entryY=0.5;entryDx=0;entryDy=0;entryPerimeter=0;startArrow=none;startFill=0;" parent="-saSSTwOgaSNBJ1hiF60-4" source="-saSSTwOgaSNBJ1hiF60-49" target="-saSSTwOgaSNBJ1hiF60-19" edge="1">
          <mxGeometry relative="1" as="geometry" />
        </mxCell>
        <mxCell id="-saSSTwOgaSNBJ1hiF60-49" value="Once finished&lt;br&gt;Merge With tests and Check that all tests passes&amp;nbsp;" style="points=[[0.25,0,0],[0.5,0,0],[0.75,0,0],[1,0.25,0],[1,0.5,0],[1,0.75,0],[0.75,1,0],[0.5,1,0],[0.25,1,0],[0,0.75,0],[0,0.5,0],[0,0.25,0]];shape=mxgraph.bpmn.task;whiteSpace=wrap;rectStyle=rounded;size=10;html=1;taskMarker=abstract;" parent="-saSSTwOgaSNBJ1hiF60-4" vertex="1">
          <mxGeometry x="450" y="30" width="130" height="60" as="geometry" />
        </mxCell>
        <mxCell id="-saSSTwOgaSNBJ1hiF60-23" value="" style="edgeStyle=none;html=1;" parent="-saSSTwOgaSNBJ1hiF60-1" source="-saSSTwOgaSNBJ1hiF60-19" target="-saSSTwOgaSNBJ1hiF60-22" edge="1">
          <mxGeometry relative="1" as="geometry" />
        </mxCell>
        <mxCell id="-saSSTwOgaSNBJ1hiF60-27" value="" style="edgeStyle=none;html=1;exitX=0.5;exitY=1;exitDx=0;exitDy=0;exitPerimeter=0;" parent="-saSSTwOgaSNBJ1hiF60-1" source="-saSSTwOgaSNBJ1hiF60-24" target="-saSSTwOgaSNBJ1hiF60-26" edge="1">
          <mxGeometry relative="1" as="geometry" />
        </mxCell>
        <mxCell id="-saSSTwOgaSNBJ1hiF60-28" value="NO" style="edgeLabel;html=1;align=center;verticalAlign=middle;resizable=0;points=[];" parent="-saSSTwOgaSNBJ1hiF60-27" vertex="1" connectable="0">
          <mxGeometry x="-0.7094" relative="1" as="geometry">
            <mxPoint as="offset" />
          </mxGeometry>
        </mxCell>
        <mxCell id="-saSSTwOgaSNBJ1hiF60-34" style="edgeStyle=none;html=1;entryX=0.75;entryY=1;entryDx=0;entryDy=0;entryPerimeter=0;" parent="-saSSTwOgaSNBJ1hiF60-1" source="-saSSTwOgaSNBJ1hiF60-26" target="-saSSTwOgaSNBJ1hiF60-22" edge="1">
          <mxGeometry relative="1" as="geometry" />
        </mxCell>
        <mxCell id="-saSSTwOgaSNBJ1hiF60-37" value="Developer&lt;br&gt;(Test)" style="swimlane;html=1;startSize=40;horizontal=0;" parent="-saSSTwOgaSNBJ1hiF60-1" vertex="1">
          <mxGeometry x="20" y="400" width="1020" height="120" as="geometry" />
        </mxCell>
        <mxCell id="-saSSTwOgaSNBJ1hiF60-38" value="Create branch" style="points=[[0.25,0,0],[0.5,0,0],[0.75,0,0],[1,0.25,0],[1,0.5,0],[1,0.75,0],[0.75,1,0],[0.5,1,0],[0.25,1,0],[0,0.75,0],[0,0.5,0],[0,0.25,0]];shape=mxgraph.bpmn.task;whiteSpace=wrap;rectStyle=rounded;size=10;html=1;taskMarker=abstract;" parent="-saSSTwOgaSNBJ1hiF60-37" vertex="1">
          <mxGeometry x="220" y="40" width="60" height="40" as="geometry" />
        </mxCell>
        <mxCell id="-saSSTwOgaSNBJ1hiF60-39" value="Implement tests and commit each day" style="points=[[0.25,0,0],[0.5,0,0],[0.75,0,0],[1,0.25,0],[1,0.5,0],[1,0.75,0],[0.75,1,0],[0.5,1,0],[0.25,1,0],[0,0.75,0],[0,0.5,0],[0,0.25,0]];shape=mxgraph.bpmn.task;whiteSpace=wrap;rectStyle=rounded;size=10;html=1;taskMarker=abstract;" parent="-saSSTwOgaSNBJ1hiF60-37" vertex="1">
          <mxGeometry x="310" y="30" width="120" height="60" as="geometry" />
        </mxCell>
        <mxCell id="-saSSTwOgaSNBJ1hiF60-40" value="" style="edgeStyle=none;html=1;" parent="-saSSTwOgaSNBJ1hiF60-37" source="-saSSTwOgaSNBJ1hiF60-38" target="-saSSTwOgaSNBJ1hiF60-39" edge="1">
          <mxGeometry relative="1" as="geometry" />
        </mxCell>
        <mxCell id="-saSSTwOgaSNBJ1hiF60-41" value="Update tests if needed" style="points=[[0.25,0,0],[0.5,0,0],[0.75,0,0],[1,0.25,0],[1,0.5,0],[1,0.75,0],[0.75,1,0],[0.5,1,0],[0.25,1,0],[0,0.75,0],[0,0.5,0],[0,0.25,0]];shape=mxgraph.bpmn.task;whiteSpace=wrap;rectStyle=rounded;size=10;html=1;taskMarker=abstract;" parent="-saSSTwOgaSNBJ1hiF60-37" vertex="1">
          <mxGeometry x="503" y="40" width="90" height="40" as="geometry" />
        </mxCell>
        <mxCell id="-saSSTwOgaSNBJ1hiF60-43" value="Fix remarks" style="points=[[0.25,0,0],[0.5,0,0],[0.75,0,0],[1,0.25,0],[1,0.5,0],[1,0.75,0],[0.75,1,0],[0.5,1,0],[0.25,1,0],[0,0.75,0],[0,0.5,0],[0,0.25,0]];shape=mxgraph.bpmn.task;whiteSpace=wrap;rectStyle=rounded;size=10;html=1;taskMarker=abstract;" parent="-saSSTwOgaSNBJ1hiF60-37" vertex="1">
          <mxGeometry x="760" y="40" width="90" height="40" as="geometry" />
        </mxCell>
        <mxCell id="-saSSTwOgaSNBJ1hiF60-45" style="edgeStyle=orthogonalEdgeStyle;html=1;entryX=0.5;entryY=0;entryDx=0;entryDy=0;entryPerimeter=0;startArrow=classic;startFill=1;" parent="-saSSTwOgaSNBJ1hiF60-1" source="-saSSTwOgaSNBJ1hiF60-26" target="-saSSTwOgaSNBJ1hiF60-43" edge="1">
          <mxGeometry relative="1" as="geometry" />
        </mxCell>
        <mxCell id="-saSSTwOgaSNBJ1hiF60-36" value="" style="edgeStyle=none;html=1;" parent="-saSSTwOgaSNBJ1hiF60-1" source="-saSSTwOgaSNBJ1hiF60-32" target="-saSSTwOgaSNBJ1hiF60-35" edge="1">
          <mxGeometry relative="1" as="geometry" />
        </mxCell>
        <mxCell id="-saSSTwOgaSNBJ1hiF60-10" value="" style="edgeStyle=none;html=1;" parent="-saSSTwOgaSNBJ1hiF60-1" source="-saSSTwOgaSNBJ1hiF60-6" target="-saSSTwOgaSNBJ1hiF60-9" edge="1">
          <mxGeometry relative="1" as="geometry" />
        </mxCell>
        <mxCell id="-saSSTwOgaSNBJ1hiF60-14" value="" style="edgeStyle=none;html=1;" parent="-saSSTwOgaSNBJ1hiF60-1" source="-saSSTwOgaSNBJ1hiF60-11" target="-saSSTwOgaSNBJ1hiF60-13" edge="1">
          <mxGeometry relative="1" as="geometry" />
        </mxCell>
        <mxCell id="-saSSTwOgaSNBJ1hiF60-44" style="edgeStyle=orthogonalEdgeStyle;html=1;entryX=0;entryY=0.5;entryDx=0;entryDy=0;entryPerimeter=0;exitX=0.5;exitY=1;exitDx=0;exitDy=0;exitPerimeter=0;" parent="-saSSTwOgaSNBJ1hiF60-1" source="-saSSTwOgaSNBJ1hiF60-13" target="-saSSTwOgaSNBJ1hiF60-38" edge="1">
          <mxGeometry relative="1" as="geometry" />
        </mxCell>
        <mxCell id="-saSSTwOgaSNBJ1hiF60-42" value="" style="edgeStyle=orthogonalEdgeStyle;html=1;entryX=0.25;entryY=1;entryDx=0;entryDy=0;entryPerimeter=0;" parent="-saSSTwOgaSNBJ1hiF60-1" source="-saSSTwOgaSNBJ1hiF60-39" target="-saSSTwOgaSNBJ1hiF60-49" edge="1">
          <mxGeometry relative="1" as="geometry">
            <mxPoint x="480" y="460" as="targetPoint" />
          </mxGeometry>
        </mxCell>
        <mxCell id="-saSSTwOgaSNBJ1hiF60-51" style="html=1;entryX=0.5;entryY=0;entryDx=0;entryDy=0;entryPerimeter=0;startArrow=classic;startFill=1;exitX=0.75;exitY=1;exitDx=0;exitDy=0;exitPerimeter=0;" parent="-saSSTwOgaSNBJ1hiF60-1" source="-saSSTwOgaSNBJ1hiF60-49" target="-saSSTwOgaSNBJ1hiF60-41" edge="1">
          <mxGeometry relative="1" as="geometry">
            <mxPoint x="875" y="410" as="sourcePoint" />
            <mxPoint x="875" y="490" as="targetPoint" />
          </mxGeometry>
        </mxCell>
      </root>
    </mxGraphModel>
  </diagram>
</mxfile>
